<svg xmlns:xlink="http://www.w3.org/1999/xlink" viewBox="0 0 20 21" fill="none" xmlns="http://www.w3.org/2000/svg" width="24"  height="25" >
    <path d="M8.30373 8.65756V11.7284C7.93253 11.6265 7.54412 11.6126 7.16708 11.6877C6.79004 11.7628 6.43401 11.9251 6.12521 12.1625C5.81641 12.3999 5.56272 12.7064 5.38283 13.0595C5.20293 13.4125 5.10143 13.8031 5.0858 14.2024C5.06468 14.5462 5.11448 14.8907 5.23187 15.2128C5.34925 15.535 5.53151 15.8271 5.76637 16.0699C6.00124 16.3126 6.28328 16.5002 6.59355 16.6199C6.90381 16.7398 7.23512 16.7891 7.56521 16.7646C9.39728 16.7646 10.0446 15.4246 10.0446 14.1678V2.00391H12.9611C13.4572 5.216 14.9992 5.96137 17.0661 6.30587V9.3834C17.0661 9.3834 14.6141 9.20193 13.0437 7.96915V14.0488C13.0421 16.7998 11.4755 19.8706 7.5872 19.8706C3.97883 19.8706 2.13281 16.688 2.13281 14.0204C2.15583 13.23 2.33952 12.4536 2.67179 11.7426C3.00405 11.0315 3.47735 10.4018 4.06045 9.89507C4.64356 9.38832 5.32323 9.01601 6.05464 8.80271C6.78607 8.5894 7.5526 8.53993 8.30373 8.65756Z" fill="#FFF8EC"></path>
</svg>