<svg xmlns:xlink="http://www.w3.org/1999/xlink" viewBox="0 0 21 21" fill="currentColor" xmlns="http://www.w3.org/2000/svg" width="24"  height="24" >
  <path id="5623533f3db320c05db6aeefc6694e0e" d="M10.4332 0C4.66276 0 0 4.69929 0 10.4957C0 14.9445 2.74784 18.7454 6.62918 20.2744C6.5347 19.4451 6.45742 18.1666 6.6635 17.2596C6.85242 16.4389 7.88285 12.0419 7.88285 12.0419C7.88285 12.0419 7.57373 11.4114 7.57373 10.4871C7.57373 9.02714 8.41525 7.93871 9.46288 7.93871C10.3559 7.93871 10.7853 8.61252 10.7853 9.41589C10.7853 10.3143 10.2185 11.6619 9.918 12.9145C9.66896 13.9597 10.4418 14.8149 11.4637 14.8149C13.3185 14.8149 14.7439 12.8453 14.7439 10.0119C14.7439 7.49817 12.9492 5.74454 10.3817 5.74454C7.41058 5.74454 5.66743 7.98188 5.66743 10.297C5.66743 11.1954 6.01091 12.1629 6.44026 12.6898C6.52614 12.7935 6.5347 12.8885 6.50894 12.9922C6.43166 13.3205 6.25134 14.0374 6.21698 14.1843C6.17407 14.3743 6.06243 14.4175 5.86491 14.3225C4.57688 13.7005 3.76969 11.7828 3.76969 10.2452C3.76969 6.93667 6.15686 3.89593 10.6651 3.89593C14.2802 3.89593 17.0967 6.48744 17.0967 9.96009C17.0967 13.5796 14.8298 16.4908 11.6869 16.4908C10.6307 16.4908 9.6346 15.9379 9.29972 15.2814C9.29972 15.2814 8.77593 17.2855 8.64713 17.7779C8.41525 18.6936 7.77981 19.8338 7.35046 20.5335C8.32941 20.8359 9.35984 21 10.4418 21C16.2037 21 20.875 16.3007 20.875 10.5043C20.8664 4.69929 16.1951 0 10.4332 0Z" fill="#FFF8EC"></path>
</svg>