<svg xmlns:xlink="http://www.w3.org/1999/xlink" viewBox="0 0 21 20" fill="currentColor" xmlns="http://www.w3.org/2000/svg" width="24"  height="23" >
  <path id="0a764ea9746000bd3116872810f91c05" d="M19.1667 0.25H1.83333C1.23425 0.25 0.75 0.735333 0.75 1.33333V18.6667C0.75 19.2647 1.23425 19.75 1.83333 19.75H19.1667C19.7658 19.75 20.25 19.2647 20.25 18.6667V1.33333C20.25 0.735333 19.7658 0.25 19.1667 0.25ZM6.53392 16.8651H3.63925V7.55925H6.53392V16.8651ZM5.08658 6.2885C4.15925 6.2885 3.40958 5.53667 3.40958 4.6115C3.40958 3.68633 4.15817 2.9345 5.08658 2.9345C6.01175 2.9345 6.76358 3.68525 6.76358 4.6115C6.76358 5.53775 6.01175 6.2885 5.08658 6.2885ZM17.3662 16.8651H14.4748V12.34C14.4748 11.261 14.4553 9.87325 12.9711 9.87325C11.4653 9.87325 11.2367 11.0498 11.2367 12.2642V16.8662H8.34742V7.56033H11.1208V8.83217H11.1608C11.5454 8.10092 12.4901 7.32958 13.8952 7.32958C16.8245 7.32958 17.3651 9.25575 17.3651 11.7626V16.8651H17.3662Z" fill="#FFF8EC"></path>
</svg>