<svg xmlns:xlink="http://www.w3.org/1999/xlink" viewBox="0 0 21 21" fill="currentColor" xmlns="http://www.w3.org/2000/svg" width="24"  height="24" >
  <path id="5348b1462f894082cba16811478a19a9" fill-rule="evenodd" clip-rule="evenodd" d="M20.094 3.85002C20.3955 4.64652 20.553 5.49139 20.5653 6.34302C20.628 7.41469 20.6283 7.76517 20.6306 10.4779L20.6306 10.5156C20.6306 13.264 20.616 13.6071 20.5676 14.6894C20.5507 15.532 20.3921 16.3623 20.0962 17.1498C19.5686 18.5088 18.4942 19.5843 17.1341 20.1119C16.3466 20.4078 15.5152 20.5664 14.6748 20.5833C13.6005 20.6463 13.2483 20.6463 10.5011 20.6463C7.75383 20.6463 7.41071 20.6316 6.32733 20.5833C5.48358 20.5563 4.65221 20.383 3.86921 20.077C2.50796 19.5505 1.43358 18.475 0.905957 17.116C0.610082 16.3274 0.451457 15.4971 0.434582 14.6556C0.371582 13.5801 0.371582 13.2291 0.371582 10.4819C0.371582 7.73464 0.386207 7.39152 0.434582 6.30814C0.450332 5.46777 0.610082 4.63639 0.905957 3.85002C1.43246 2.48989 2.50796 1.41439 3.86808 0.887891C4.65446 0.592016 5.48583 0.433391 6.32621 0.415391C7.40058 0.353516 7.75271 0.353516 10.5 0.353516C13.2472 0.353516 13.5903 0.367016 14.6726 0.415391C15.5141 0.433391 16.3455 0.592016 17.1318 0.887891C18.492 1.41439 19.5663 2.48989 20.094 3.85002ZM5.29233 10.4763C5.29233 13.3495 7.61996 15.6771 10.4932 15.6771C13.3642 15.6771 15.6941 13.3495 15.6941 10.4763C15.6941 7.60302 13.3642 5.27539 10.4932 5.27539C7.61996 5.27539 5.29233 7.60302 5.29233 10.4763ZM14.6883 5.08302C14.6883 5.75352 15.2295 6.29577 15.9011 6.29577C16.5705 6.29577 17.1127 5.75352 17.1127 5.08302C17.1127 4.41252 16.5705 3.87027 15.9011 3.87027C15.2295 3.87027 14.6883 4.41252 14.6883 5.08302ZM13.8717 10.4765C13.8717 12.3423 12.3592 13.8549 10.4934 13.8549C8.62754 13.8549 7.11499 12.3423 7.11499 10.4765C7.11499 8.61069 8.62754 7.09814 10.4934 7.09814C12.3592 7.09814 13.8717 8.61069 13.8717 10.4765Z" fill="#FFF8EC"></path>
</svg>