<svg xmlns:xlink="http://www.w3.org/1999/xlink" viewBox="0 0 1324 339" fill="none" xmlns="http://www.w3.org/2000/svg" width="1324"  height="339" >
<path fill-rule="evenodd" clip-rule="evenodd" d="M1008.38 75.1179L981.125 47.8784L1017.27 34.5317L1016.93 33.1484L978.365 36.7698L989.927 0.715365L988.61 0.10376L967.784 31.8568L946.048 0.243885L944.748 0.864187L957.342 36.8389L918.677 33.4723L918.374 34.8572L954.905 47.9643L928.422 75.3777L929.343 76.4846L962.304 56.8538L967.952 94.4063L969.404 94.4015L973.974 56.8162L1007.49 76.2318L1008.38 75.1179ZM1261.37 169.988C1314.82 144.144 1311.31 93.1582 1274.24 93.1582C1246.99 93.1582 1221.61 123.563 1213.54 151.628H1209.21L1214.01 31.8819L1212.84 32.5835V31.8819L1158.81 51.1769C1167.16 64.4042 1171.24 79.8747 1170.51 95.497V234.772C1171.05 250.411 1166.98 265.865 1158.81 279.209H1224.18C1216.01 265.865 1211.94 250.411 1212.49 234.772V171.391C1221.49 139.934 1238.1 126.72 1254.82 126.72C1276.58 126.72 1278.91 166.83 1221.61 178.056L1252.48 245.647C1257.8 256.035 1260.83 267.438 1261.37 279.092H1323.94C1313.02 265.143 1303.39 250.23 1295.17 234.538L1261.37 169.988ZM655.24 144.144C652.684 152.801 647.047 171.514 640.789 192.292C638.17 200.985 635.443 210.038 632.787 218.868C625.77 195.48 612.789 152.329 607.292 134.204C604.734 127.846 603.75 120.964 604.422 114.143C605.094 107.323 607.402 100.766 611.152 95.0291H501.457V53.2817H499.586C486.255 75.2663 458.655 88.3635 437.137 95.0291V103.449H458.538V237.695C458.538 255.587 468.245 281.431 497.364 281.431C507.847 282.06 518.226 279.054 526.748 272.918C535.271 266.782 541.415 257.893 544.142 247.752C537.305 251.271 529.729 253.115 522.04 253.131C519.216 253.435 516.361 253.097 513.687 252.141C511.013 251.186 508.59 249.637 506.599 247.613C504.608 245.588 503.101 243.14 502.19 240.45C501.28 237.761 500.989 234.9 501.34 232.082V103.449H527.068C552.566 103.449 556.89 116.566 562.754 134.355L562.758 134.367C563.133 135.503 563.513 136.657 563.906 137.829C570.455 157.358 592.324 221.09 613.257 282.015C611.795 286.968 608.671 291.266 604.411 294.184C600.151 297.102 595.014 298.463 589.868 298.036C577.67 298.1 565.821 293.972 556.305 286.342L545.429 334.054C553.48 337.029 561.989 338.573 570.572 338.614C591.622 338.614 609.164 326.102 621.443 287.278C630.482 258.429 639.783 227.351 647.664 201.02L647.673 200.991L647.678 200.972L647.687 200.942L647.688 200.937L647.69 200.932C654.684 177.564 660.556 157.943 664.128 146.95C669.752 129.061 676.993 111.721 685.763 95.146H652.784C662.959 104.384 662.257 121.107 655.24 144.144ZM757.913 103.45V232.083C757.562 234.901 757.853 237.761 758.763 240.451C759.674 243.14 761.181 245.589 763.172 247.614C765.163 249.638 767.586 251.186 770.26 252.142C772.934 253.098 775.789 253.436 778.613 253.132C786.301 253.102 793.874 251.259 800.716 247.753C797.988 257.894 791.844 266.783 783.322 272.918C774.799 279.054 764.42 282.061 753.937 281.432C724.818 281.432 715.112 255.588 715.112 237.696V103.45H693.593V95.0298C715.111 88.3643 742.594 75.2671 756.042 53.2824H757.913V95.0298H798.026L795.453 103.45H757.913ZM1076.83 102.166C1034.26 102.166 1042.68 238.05 1104.42 238.05C1113.13 237.676 1121.6 235.071 1129.02 230.484C1136.43 225.897 1142.54 219.482 1146.76 211.855C1143.6 256.175 1122.9 281.2 1089.34 281.2C1048.99 281.2 1016.95 247.639 1016.95 186.713C1016.95 130.582 1044.43 93.1614 1092.73 93.1614C1110.59 94.0516 1127.87 99.8367 1142.67 109.884V178.644H1141.03C1125.24 148.942 1098.34 102.166 1076.83 102.166ZM938.84 114.325L992.986 95.0301L992.518 234.773C991.972 250.412 996.039 265.866 1004.21 279.21H938.84C947.014 265.866 951.081 250.412 950.535 234.773V158.762C951.081 143.123 947.014 127.669 938.84 114.325ZM363.582 140.17H360.424L362.88 95.0314L308.734 114.326C316.908 127.671 320.975 143.125 320.429 158.763V234.774C320.975 250.413 316.908 265.867 308.734 279.211H374.107C365.933 265.867 361.866 250.413 362.412 234.774V160.868C362.412 131.399 401.589 133.037 419.013 153.735H420.183V94.4467C391.297 87.3133 369.078 117.835 363.582 140.17ZM862.7 140.171H865.858C871.354 117.836 893.69 87.3143 922.693 94.4477V153.736H921.407C904.099 133.038 864.805 131.4 864.805 160.869V234.775C864.259 250.414 868.326 265.868 876.499 279.212H811.127C819.301 265.868 823.368 250.414 822.822 234.775V158.764C823.368 143.126 819.301 127.672 811.127 114.327L865.156 95.0324L862.7 140.171ZM224.65 93.0419C256.81 93.0419 280.199 107.075 280.199 143.443V237.696C280.13 252.283 284.184 266.592 291.894 278.976H237.631V247.987C234.539 257.523 228.623 265.894 220.666 271.992C212.709 278.09 203.087 281.627 193.075 282.133C186.944 282.639 180.776 281.831 174.982 279.764C169.187 277.697 163.9 274.418 159.473 270.147C155.047 265.875 151.581 260.708 149.309 254.992C147.037 249.275 146.01 243.14 146.297 236.995C146.297 205.29 170.809 191.283 194.37 177.818C216.174 165.359 237.164 153.364 237.164 128.241V111.051C237.164 105.437 234.357 101.111 228.276 101.111C219.117 101.111 203.166 116.777 170.939 148.428C166.544 152.745 161.847 157.358 156.822 162.27H155.536L175.183 100.175C191.295 95.6722 207.922 93.2745 224.65 93.0419ZM192.374 229.744C192.374 244.946 199.157 255.12 212.371 255.12H212.956C226.872 255.12 235.643 236.761 237.164 222.026V151.044C233.229 165.176 224.001 175.344 214.937 185.331C203.525 197.905 192.374 210.192 192.374 229.744ZM149.924 93.6239C149.924 68.7157 131.446 47.9005 94.3748 47.9005H0C8.1993 61.2338 12.2684 76.6958 11.6945 92.3377V234.77C12.2592 250.374 8.18991 265.796 0 279.09H65.3727C57.1828 265.796 53.1135 250.374 53.6781 234.77V209.16C98.9359 179.107 149.924 141.218 149.924 93.6239ZM102.327 99.0032C102.327 142.505 82.0956 172.792 54.1457 198.753V56.788H65.8402C91.802 56.788 102.795 72.1071 102.795 98.8863L102.327 99.0032Z" fill="#FFD8D7"></path>
</svg>